<?xml version="1.0" encoding="UTF-8" standalone="no"?><!DOCTYPE svg PUBLIC "-//W3C//DTD SVG 1.1//EN" "http://www.w3.org/Graphics/SVG/1.1/DTD/svg11.dtd"><svg width="100%" height="100%" viewBox="0 0 2582 2582" version="1.1" xmlns="http://www.w3.org/2000/svg" xmlns:xlink="http://www.w3.org/1999/xlink" xml:space="preserve" xmlns:serif="http://www.serif.com/" style="fill-rule:evenodd;clip-rule:evenodd;stroke-linejoin:round;stroke-miterlimit:2;"><g><g><path d="M1317.445,513.65c280.872,34.985 637.31,82.43 754.741,95.812c9.542,1.087 -2.585,7.984 -3.206,8.338c-52.761,30.006 -309.918,186.497 -336.786,202.848c-25.611,15.585 -22.714,19.149 -52.441,77.771c-149.479,294.769 -350.003,697.466 -380.251,758.209c-0.92,1.848 -6.401,18.824 -12.022,8.519c-18.592,-34.084 -311.337,-617.514 -345.518,-687.22c-70.282,-143.33 -70.094,-144.513 -81.989,-151.468c-87.037,-50.888 -321.047,-196.449 -345.677,-209.306c-18.197,-9.499 19,-9.841 41.732,-12.588c252.905,-30.569 504.197,-64.123 548.004,-69.972c63.347,-8.458 63.101,-7.728 119.084,-15.58c89.706,-12.582 93.089,-5.515 94.328,-5.362Z" style="fill:#090900;"/><path d="M1304.93,2063.976c-10.108,5.673 -11.449,10.018 -29.435,-0.988c-62.191,-38.055 -64.304,-37.934 -63.666,-44.097c0.645,-6.227 4.193,-4.797 213.522,-419.545c112.674,-223.765 225.349,-447.529 338.023,-671.294c14.107,-27.992 11.7,-30.961 38.735,-46.745c0.689,-0.402 275.348,-165.233 301.454,-182.409c15.594,-10.259 5.188,9.373 -16.361,95.85c-6.129,24.596 -140.799,537.556 -153.07,584.293c-40.851,155.603 -34.342,158.445 -57.872,194.322c-104.909,159.953 -223.487,282.155 -571.331,490.613Z" style="fill:#1b8ee2;"/><path d="M472.75,706.823c-0.53,-2.17 -1.619,-4.177 -2.149,-6.347c-2.872,-11.756 14.314,0.973 49.927,23.028c98.309,60.884 277.215,166.711 281.84,172.151c6.024,7.086 372.707,739.211 404.945,803.577c32.93,65.748 36.826,66.842 30.466,78.723c-27.259,50.926 -98.279,188.436 -100.407,191.783c-2.761,4.344 -6.669,2.317 -17.056,-4.295c-303.104,-192.94 -425.342,-399.764 -431.129,-424.525c-42.194,-180.558 -200.367,-770.779 -216.437,-834.096Z" style="fill:#1b8ee2;"/></g><rect x="0" y="0" width="2581.333" height="2581.333" style="fill:none;"/></g></svg>