<?xml version="1.0" encoding="UTF-8" standalone="no"?><!DOCTYPE svg PUBLIC "-//W3C//DTD SVG 1.1//EN" "http://www.w3.org/Graphics/SVG/1.1/DTD/svg11.dtd"><svg width="100%" height="100%" viewBox="0 0 8917 2137" version="1.1" xmlns="http://www.w3.org/2000/svg" xmlns:xlink="http://www.w3.org/1999/xlink" xml:space="preserve" xmlns:serif="http://www.serif.com/" style="fill-rule:evenodd;clip-rule:evenodd;stroke-linejoin:round;stroke-miterlimit:2;"><g><g><path d="M4102.656,833.913c9.089,529.511 -254.9,599.789 -193.211,659.211c48.111,46.339 230.25,125.3 226.694,173.978c-1.672,22.844 -63.128,95.272 -112.028,169.339c-52.722,79.856 -82.25,31.611 -224.467,-64.561c-153.689,-103.933 -150.661,-134.428 -257.233,-112.422c-158.483,32.722 -474.883,7.367 -650.083,-223.789c-76.917,-101.478 -192.322,-236.006 -191.228,-601.772c0.161,-52.85 -22.661,-397.661 223.2,-643.556c269.45,-269.489 802.078,-267.011 1043.411,98.967c40.828,61.917 63.333,121.483 95.344,212.95c37.272,106.494 39.322,304.928 39.6,331.644l0,0.011Zm-847.656,506.011c413.35,178.822 574.867,-301.089 470.872,-765.722c-69.694,-311.372 -450.583,-397.778 -611.794,-98.294c-113.306,210.489 -49.272,548.111 -40.378,594.983c30.6,161.339 160.189,253.944 181.306,269.033l-0.006,0Z" style="fill:#094c2c;"/><path d="M7210.7,324.952c120.989,-7.589 264.222,-0.239 366.911,120.167c135.194,158.522 114.661,299.917 114.3,984.117c-0.078,149.656 22.55,211.661 -75.906,212.094c-189.489,0.828 -241.983,5.728 -258.428,-23.328c-18.183,-32.122 -1.689,-605.222 -9.317,-783.733c-11.989,-280.6 -235.494,-217.289 -255.094,-210.972c-201.206,64.867 -182.861,192.422 -183.133,234.556c-3.3,514.322 14.989,753.011 -16.778,774.894c-16.717,11.517 -19.217,13.239 -253.539,9.744c-67.794,-1.011 -69.811,-24.978 -69.75,-94.172c0.956,-1059.778 -2.922,-1059.089 -1.228,-1143c1.378,-68.256 57.25,-56.411 213.911,-54.944c91.289,0.85 76.428,47.972 84.522,82.772c26.772,115.117 59.567,-75.328 343.517,-108.2l0.011,0.006Z" style="fill:#094c2c;"/><path d="M5890.312,1182.213c21.95,-108.55 209.361,-792.778 233.483,-816.556c15.889,-15.667 24.744,-24.394 278.517,-15.406c74.439,2.639 40.772,48.306 -38.95,296.211c-22.689,70.55 -28.067,67.956 -297.478,877.328c-92.428,277.672 -194.567,627.683 -592.589,612.289c-179.911,-6.961 -146.789,-67.222 -143.506,-87.739c29.472,-184.156 38.75,-191.806 71.639,-192.083c15.078,-0.128 46.394,16.394 117.667,-3.183c111.028,-30.5 206.678,-203.783 165.778,-327.939c-50.667,-153.811 -342.033,-903.033 -383.928,-1022.844c-41.033,-117.35 -52.944,-120.028 -37.083,-140.144c16.711,-21.189 299.833,-18.122 325.478,-0.678c18.55,12.622 18.239,26.211 67.644,165.294c7.322,20.611 68.617,217.772 74.511,236.733c35.561,114.383 127.756,419.5 128.539,419.944c2.111,1.194 2.217,-0.089 30.272,-1.217l0.006,-0.011Z" style="fill:#094c2c;"/><path d="M4605.012,690.98c4.939,18.222 -18.5,83.106 197.978,151.989c185.917,59.161 482.906,145.767 412.089,515.7c-41.256,215.517 -335.628,380.211 -695.056,286.35c-39.172,-10.228 -311.489,-103.511 -282.917,-190.928c1.883,-5.767 100.483,-157.156 115.9,-168.622c54.239,-40.339 176.178,133.106 404.861,113.833c168.356,-14.189 166.794,-185.494 49.967,-235.233c-201.656,-85.85 -547.744,-146.056 -532.844,-473.372c17.917,-393.517 575.661,-466.4 878.606,-249.717c56.522,40.428 1.628,93.372 -55.011,182.572c-37.206,58.594 -50.617,59.289 -107.1,29.156c-109.139,-58.217 -161.572,-65.05 -208.189,-67.511c-153.483,-8.106 -163.483,56.272 -178.278,105.778l-0.006,0.006Z" style="fill:#094c2c;"/><path d="M8401.173,328.68c29.05,-2.85 230.972,-22.672 362.267,43.233c19.522,9.8 136.983,60.278 137.361,104.867c0.139,16.161 -36.878,69.517 -40.772,75.133c-66.478,95.828 -80.956,150.478 -144.544,109.072c-152.156,-99.072 -507.222,-118.978 -503.894,339.628c0.256,35.539 2.428,335.039 239.183,374.35c228.078,37.872 300.489,-106.689 351.467,-80.917c13.9,7.028 108.328,168.472 113.206,185.889c19.322,68.978 -201.728,190.978 -418.333,190.4c-673.65,-1.8 -724.95,-746.533 -553.411,-1030.017c126.472,-209.011 252.494,-272.033 457.472,-311.633l0,-0.006Z" style="fill:#094c2c;"/></g><g><path d="M2125.25,785.869c8.106,3.75 35.178,-22.683 42.339,40.2c4.344,38.156 3.589,37.483 8.506,75.694c60.217,468.139 -168.528,730.717 -225.144,809.139c-42.139,58.367 -11.989,66.456 97.983,184.706c18.489,19.878 37.894,31.789 28.478,55.35c-11.35,28.417 -98.167,22.989 -154.378,35.694c-217.211,49.111 -351.45,60.522 -523.556,96.728c-146.75,30.872 -157.606,17.822 -166.117,7.594c-20.15,-24.217 -5.083,-28.833 93.672,-382.511c8.433,-30.206 91.356,-327.178 108.711,-376.606c22.194,-63.228 55.639,-17.4 76.844,4.089c103.917,105.306 117.594,146.644 174.506,87.822c380.606,-393.372 405.028,-448.933 438.161,-637.894l-0.006,-0.006Z" style="fill:#094c2c;"/><path d="M27.545,1321.396c-31.867,-151.728 -61.417,-366.017 66,-658.978c105.861,-243.411 222.467,-248.311 141.872,-335.561c-95.572,-103.467 -134.317,-133.75 -113.128,-154.639c3.883,-3.828 58.506,-13.317 63.644,-14.211c681.267,-118.328 679.906,-124.717 739.328,-133.783c83.561,-12.75 13.011,101.706 -71.117,423.056c-7.478,28.572 -8.589,27.806 -99.5,355.539c-14.522,52.356 -55.206,19.611 -59.089,14.961c-86.133,-103.111 -127.889,-196.278 -200.028,-109.322c-63.322,76.328 -192.372,192.856 -303.25,338.189c-123.694,162.139 -123.911,297.056 -132.178,297.822c0,0 -29.939,-21.233 -32.544,-23.078l-0.011,0.006Z" style="fill:#094c2c;"/><path d="M1990.373,495.924c59.467,260.361 -74.611,413.378 -132.467,502.589c-67.989,104.839 -60.85,-39.9 -63.133,-49.139c-45.383,-183.506 -133.767,-294.283 -151.256,-316.206c-23.067,-28.011 -154.261,-187.356 -382.656,-243.533c-98.144,-24.139 -191.072,-3.378 -199.639,-34.928c-7.833,-28.85 76.883,-306.411 92.111,-322.817c57.644,-62.089 653.694,77.672 837.039,464.033Z" style="fill:#094c2c;"/><path d="M383.017,1135.524c13.15,77.144 32.639,387.678 424.789,568.733c92.594,42.75 260.861,47.161 283.883,47.767c71.089,1.861 40.556,44.561 -1.211,195.011c-44.361,159.794 -55.989,163.944 -69.75,168.856c-46.261,16.511 -489.967,-26.578 -768.733,-378.261c-115.217,-145.35 -75.911,-358.106 21.472,-509.9c23.828,-37.139 23.744,-36.556 48.022,-73.906c22.244,-34.228 19.144,-38.344 31.489,-40.539c11.122,-1.978 18.733,3.656 20.056,4.639c8.689,6.433 1.35,11.211 9.983,17.6Z" style="fill:#094c2c;"/></g></g></svg>