<?xml version="1.0" encoding="UTF-8" standalone="no"?><!DOCTYPE svg PUBLIC "-//W3C//DTD SVG 1.1//EN" "http://www.w3.org/Graphics/SVG/1.1/DTD/svg11.dtd"><svg width="100%" height="100%" viewBox="0 0 1804 472" version="1.1" xmlns="http://www.w3.org/2000/svg" xmlns:xlink="http://www.w3.org/1999/xlink" xml:space="preserve" xmlns:serif="http://www.serif.com/" style="fill-rule:evenodd;clip-rule:evenodd;stroke-linejoin:round;stroke-miterlimit:2;"><g><g><g><path d="M837.982,183.813c1.636,95.312 -45.882,107.962 -34.778,118.658c8.66,8.341 41.445,22.554 40.805,31.316c-0.301,4.112 -11.363,17.149 -20.165,30.481c-9.49,14.374 -14.805,5.69 -40.404,-11.621c-27.664,-18.708 -27.119,-24.197 -46.302,-20.236c-28.527,5.89 -85.479,1.326 -117.015,-40.282c-13.845,-18.266 -34.618,-42.481 -34.421,-108.319c0.029,-9.513 -4.079,-71.579 40.176,-115.84c48.501,-48.508 144.374,-48.062 187.814,17.814c7.349,11.145 11.4,21.867 17.162,38.331c6.709,19.169 7.078,54.887 7.128,59.696Zm-152.578,91.082c74.403,32.188 103.476,-54.196 84.757,-137.83c-12.545,-56.047 -81.105,-71.6 -110.123,-17.693c-20.395,37.888 -8.869,98.66 -7.268,107.097c5.508,29.041 28.834,45.71 32.635,48.426Z" style="fill:#fdfdfd;"/><path d="M1397.43,92.2c21.778,-1.366 47.56,-0.043 66.044,21.63c24.335,28.534 20.639,53.985 20.574,177.141c-0.014,26.938 4.059,38.099 -13.663,38.177c-34.108,0.149 -43.557,1.031 -46.517,-4.199c-3.273,-5.782 -0.304,-108.94 -1.677,-141.072c-2.158,-50.508 -42.389,-39.112 -45.917,-37.975c-36.217,11.676 -32.915,34.636 -32.964,42.22c-0.594,92.578 2.698,135.542 -3.02,139.481c-3.009,2.073 -3.459,2.383 -45.637,1.754c-12.203,-0.182 -12.566,-4.496 -12.555,-16.951c0.172,-190.76 -0.526,-190.636 -0.221,-205.74c0.248,-12.286 10.305,-10.154 38.504,-9.89c16.432,0.153 13.757,8.635 15.214,14.899c4.819,20.721 10.722,-13.559 61.833,-19.476Z" style="fill:#fdfdfd;"/><path d="M1159.76,246.507c3.951,-19.539 37.685,-142.7 42.027,-146.98c2.86,-2.82 4.454,-4.391 50.133,-2.773c13.399,0.475 7.339,8.695 -7.011,53.318c-4.084,12.699 -5.052,12.232 -53.546,157.919c-16.637,49.981 -35.022,112.983 -106.666,110.212c-32.384,-1.253 -26.422,-12.1 -25.831,-15.793c5.305,-33.148 6.975,-34.525 12.895,-34.575c2.714,-0.023 8.351,2.951 21.18,-0.573c19.985,-5.49 37.202,-36.681 29.84,-59.029c-9.12,-27.686 -61.566,-162.546 -69.107,-184.112c-7.386,-21.123 -9.53,-21.605 -6.675,-25.226c3.008,-3.814 53.97,-3.262 58.586,-0.122c3.339,2.272 3.283,4.718 12.176,29.753c1.318,3.71 12.351,39.199 13.412,42.612c6.401,20.589 22.996,75.51 23.137,75.59c0.38,0.215 0.399,-0.016 5.449,-0.219Z" style="fill:#fdfdfc;"/><path d="M928.406,158.085c0.889,3.28 -3.33,14.959 35.636,27.358c33.465,10.649 86.923,26.238 74.176,92.826c-7.426,38.793 -60.413,68.438 -125.11,51.543c-7.051,-1.841 -56.068,-18.632 -50.925,-34.367c0.339,-1.038 18.087,-28.288 20.862,-30.352c9.763,-7.261 31.712,23.959 72.875,20.49c30.304,-2.554 30.023,-33.389 8.994,-42.342c-36.298,-15.453 -98.594,-26.29 -95.912,-85.207c3.225,-70.833 103.619,-83.952 158.149,-44.949c10.174,7.277 0.293,16.807 -9.902,32.863c-6.697,10.547 -9.111,10.672 -19.278,5.248c-19.645,-10.479 -29.083,-11.709 -37.474,-12.152c-27.627,-1.459 -29.427,10.129 -32.09,19.04Z" style="fill:#fdfdfc;"/><path d="M1611.715,92.871c5.229,-0.513 41.575,-4.081 65.208,7.782c3.514,1.764 24.657,10.85 24.725,18.876c0.025,2.909 -6.638,12.513 -7.339,13.524c-11.966,17.249 -14.572,27.086 -26.018,19.633c-27.388,-17.833 -91.3,-21.416 -90.701,61.133c0.046,6.397 0.437,60.307 43.053,67.383c41.054,6.817 54.088,-19.204 63.264,-14.565c2.502,1.265 19.499,30.325 20.377,33.46c3.478,12.416 -36.311,34.376 -75.3,34.272c-121.257,-0.324 -130.491,-134.376 -99.614,-185.403c22.765,-37.622 45.449,-48.966 82.345,-56.094Z" style="fill:#fdfdfd;"/></g><g><path d="M482.049,175.165c1.459,0.675 6.332,-4.083 7.621,7.236c0.782,6.868 0.646,6.747 1.531,13.625c10.839,84.265 -30.335,131.529 -40.526,145.645c-7.585,10.506 -2.158,11.962 17.637,33.247c3.328,3.578 6.821,5.722 5.126,9.963c-2.043,5.115 -17.67,4.138 -27.788,6.425c-39.098,8.84 -63.261,10.894 -94.24,17.411c-26.415,5.557 -28.369,3.208 -29.901,1.367c-3.627,-4.359 -0.915,-5.19 16.861,-68.852c1.518,-5.437 16.444,-58.892 19.568,-67.789c3.995,-11.381 10.015,-3.132 13.832,0.736c18.705,18.955 21.167,26.396 31.411,15.808c68.509,-70.807 72.905,-80.808 78.869,-114.821Z" style="fill:#fdfdfc;"/><path d="M104.462,271.56c-5.736,-27.311 -11.055,-65.883 11.88,-118.616c19.055,-43.814 40.044,-44.696 25.537,-60.401c-17.203,-18.624 -24.177,-24.075 -20.363,-27.835c0.699,-0.689 10.531,-2.397 11.456,-2.558c122.628,-21.299 122.383,-22.449 133.079,-24.081c15.041,-2.295 2.342,18.307 -12.801,76.15c-1.346,5.143 -1.546,5.005 -17.91,63.997c-2.614,9.424 -9.937,3.53 -10.636,2.693c-15.504,-18.56 -23.02,-35.33 -36.005,-19.678c-11.398,13.739 -34.627,34.714 -54.585,60.874c-22.265,29.185 -22.304,53.47 -23.792,53.608c0,0 -5.389,-3.822 -5.858,-4.154Z" style="fill:#fdfdfc;"/><path d="M457.771,122.975c10.704,46.865 -13.43,74.408 -23.844,90.466c-12.238,18.871 -10.953,-7.182 -11.364,-8.845c-8.169,-33.031 -24.078,-52.971 -27.226,-56.917c-4.152,-5.042 -27.767,-33.724 -68.878,-43.836c-17.666,-4.345 -34.393,-0.608 -35.935,-6.287c-1.41,-5.193 13.839,-55.154 16.58,-58.107c10.376,-11.176 117.665,13.981 150.667,83.526Z" style="fill:#fdfdfc;"/><path d="M168.447,238.103c2.367,13.886 5.875,69.782 76.462,102.372c16.667,7.695 46.955,8.489 51.099,8.598c12.796,0.335 7.3,8.021 -0.218,35.102c-7.985,28.763 -10.078,29.51 -12.555,30.394c-8.327,2.972 -88.194,-4.784 -138.372,-68.087c-20.739,-26.163 -13.664,-64.459 3.865,-91.782c4.289,-6.685 4.274,-6.58 8.644,-13.303c4.004,-6.161 3.446,-6.902 5.668,-7.297c2.002,-0.356 3.372,0.658 3.61,0.835c1.564,1.158 0.243,2.018 1.797,3.168Z" style="fill:#fdfdfc;"/></g></g><rect x="0" y="-0" width="1804" height="472" style="fill:none;"/></g></svg>